<?xml version="1.0" encoding="utf-8"?>
<!-- Generator: Adobe Illustrator 22.0.0, SVG Export Plug-In . SVG Version: 6.00 Build 0)  -->
<svg version="1.1" id="logo" xmlns="http://www.w3.org/2000/svg" xmlns:xlink="http://www.w3.org/1999/xlink" x="0px" y="0px"
	 viewBox="0 0 1138.6 450.2" style="enable-background:new 0 0 1138.6 450.2;" xml:space="preserve">
<g>
	<path d="M246,46.8c-55.4,0-98.1,31.9-98.1,61.6c0,11,12.2,21.8,26.6,21.8c17.6,0.2,35.9-28.1,53.8-28.1c20.9,0,27.4,11.1,27.4,26.3
		c0,24-17.6,63.5-39.7,103.1c-27.2-4.6-55.7-8.4-83.8-8.4C70.7,222.9,10,259.4,10,311.3c0,39.4,31.3,63.2,71.6,63.2
		c57.7-1,107.2-66.9,139.1-131.4c17.3,2.6,42.3,8.1,60.9,12.8v19.6c0,62.4,27.9,91.7,59.4,101.1c16.9-12.8,32.6-23.7,49.9-34.5
		l-19.4,1c-14.4-3.7-40-19.2-40-69.6v-7.9c9.9,1.1,22.4,1.7,30.9,1.7c13.6,0,25.4-13.8,25.4-24.3c-10.8,6.9-33.5,7.4-56.3,5.3V126
		C331.4,109.3,330.6,46.8,246,46.8L246,46.8z M230.7,68.8c24.6,0,50.7,13.6,50.7,50.7c0,40.1,0.1,80.2,0.1,120.4
		c-15.4-2.4-40.8-5.3-56.1-6.9c20.9-44.8,36.1-87.2,36.2-104.9c0-18.9-6.9-32.3-33.1-32.3c-22.7,0-40.4,25.1-53.2,25.1
		c-8.1,0-15.7-4-15.7-15.7C159.7,86.4,181.9,68.8,230.7,68.8L230.7,68.8L230.7,68.8z M132.5,229.2c22,0,49.1,5.4,78.1,11.6
		c-35.1,59.7-86.1,116.5-128.5,116.5c-38,0-64-12.6-64-46C18.1,261.7,73.7,229.2,132.5,229.2L132.5,229.2z"/>
	<path d="M893.2,404c55.4,0,98.1-31.9,98.1-61.6c0-11-12.2-21.8-26.7-21.8c-17.6-0.2-35.9,28.1-53.8,28.1c-20.9,0-27.4-11-27.4-26.3
		c0-24,17.6-63.5,39.7-103.1c27.2,4.6,55.7,8.4,83.8,8.4c61.6,0,122.3-36.5,122.3-88.3c0-39.4-31.3-63.2-71.6-63.2
		c-57.7,1-107.2,66.9-139.1,131.4c-17.3-2.6-42.3-8.1-60.9-12.8v-19.6c0-62.4-27.9-91.7-59.4-101.1c-16.8,12.8-32.7,23.7-49.9,34.5
		l19.4-1c14.3,3.7,40,19.2,40,69.7v7.9c-9.9-1.1-22.4-1.7-30.9-1.7c-13.6,0.1-25.4,13.8-25.4,24.3c10.8-6.9,33.5-7.4,56.3-5.3v122.1
		C807.8,341.5,808.6,404,893.2,404L893.2,404z M908.4,382c-24.5,0-50.7-13.6-50.7-50.7c0-40.1-0.1-80.3-0.2-120.4
		c15.4,2.4,40.8,5.3,56.1,6.9c-21,44.8-36.1,87.2-36.2,104.9c0,18.9,6.9,32.3,33.1,32.3c22.7,0,40.4-25.1,53.2-25.1
		c8.1,0,15.7,4,15.7,15.7C979.4,364.4,957.3,382,908.4,382L908.4,382L908.4,382z M1006.6,221.6c-22,0-49.1-5.4-78.1-11.6
		c35.1-59.7,86.1-116.5,128.5-116.5c38,0,64,12.6,64,46C1121,189.1,1065.5,221.6,1006.6,221.6L1006.6,221.6z"/>
	<path d="M412.1,61.9c6.4-2.4,30.3-17.4,37.2-25.8c1.1-1.2,0.3-1.5-0.6-1.2c-12,5-26.8-17.8-33.1-24.9c-10.4,8.7-21.8,18.9-33.9,29
		C389.9,49.3,400.6,56.2,412.1,61.9z"/>
	<path d="M726.5,388.2c-6.4,2.4-30.3,17.4-37.2,25.8c-1.1,1.2-0.3,1.5,0.7,1.1c12-5,26.8,17.8,33.1,24.9c10.4-8.7,21.8-18.9,33.9-29
		C748.7,400.9,738,394,726.5,388.2L726.5,388.2z"/>
	<path d="M390.9,341.9c-0.3,29.2-16.2,58-45,72.1c73.5-0.7,94.9-54.7,95.2-101.1L441,140.1c0-24.7-2.9-52.1-27.7-65.1
		c-10.2,18.8-26.5,36.5-45.1,49c17.1-1.9,22.9,12,22.8,25.1c0,4.6,0,26.8,0,46.2c0.1,45.2,0.2,90,0.3,135.4"/>
	<path d="M748.2,108.9c0.3-29.2,16.2-58,45-72.1c-73.5,0.7-94.9,54.7-95.2,101.1l0.2,172.8c0,24.7,2.9,52.1,27.7,65.1
		c10.2-18.8,26.5-36.5,45.1-49c-17.1,1.9-22.8-12-22.8-25.1c0-4.6,0-26.8,0-46.2c-0.1-45.2-0.2-90-0.3-135.4"/>
	<path d="M520.1,10c-10.2,8.8-21.8,19-33.9,29c8.4,10.6,18.9,17.3,30.5,22.8c7.1-2.7,34.9-20,38.7-28c0.1-0.2,0-0.2-0.2-0.1
		C542.9,42.6,526.9,17.5,520.1,10L520.1,10z"/>
	<path d="M618.5,440.2c10.2-8.8,21.8-19,33.9-29c-8.4-10.6-18.9-17.3-30.5-22.8c-7.1,2.7-34.9,20-38.7,28c-0.1,0.2,0,0.2,0.2,0.1
		C595.7,407.6,611.7,432.7,618.5,440.2L618.5,440.2z"/>
	<path d="M642.9,138.5c0-15.3-2.9-29.4-10-41c1.4-1.1,2.8-2.2,4.1-3.2c31.6,26.4,60.5,2.2,64.2-33.2c-17.8,13.4-28.6,10.5-42.9-2.3
		c-7.2,11.5-17.9,22.6-29.4,33c-4.7-5.8-10.6-10.9-18.1-14.8c-10.6,17-22.8,31.9-39,45.5c17.2-1.8,21.2,11.6,21.2,25.1l0,162.8
		c0,25.8,4.3,51.8,27.1,65.1c12.8-18.5,28.6-35,45.7-49c-17.1,2-22.8-11.7-22.8-25.1L642.9,138.5z"/>
	<path d="M495.7,311.7c0,15.3,2.9,29.4,10,41c-1.4,1.1-2.8,2.2-4.1,3.2c-31.6-26.4-60.5-2.2-64.2,33.2c17.8-13.4,28.6-10.5,42.9,2.3
		c7.2-11.5,17.9-22.6,29.4-33c4.7,5.8,10.6,10.9,18.1,14.8c10.6-17,22.8-31.9,39-45.5c-17.2,1.8-21.2-11.6-21.2-25.1l0-162.8
		c0-25.8-4.3-51.8-27.1-65.1c-12.8,18.5-28.6,35-45.7,49c17.1-2,22.8,11.7,22.8,25.1L495.7,311.7z"/>
</g>
</svg>
